<svg xmlns="http://www.w3.org/2000/svg" version="1.1" xmlns:xlink="http://www.w3.org/1999/xlink" width="512" height="512" x="0" y="0" viewBox="0 0 24 24" style="enable-background:new 0 0 512 512" xml:space="preserve" class=""><g><circle cx="12" cy="12" r="6" fill="#323643" opacity="1" data-original="#000000" class=""></circle><path d="M12 5a1 1 0 0 0 1-1V2a1 1 0 0 0-2 0v2a1 1 0 0 0 1 1zM12 19a1 1 0 0 0-1 1v2a1 1 0 0 0 2 0v-2a1 1 0 0 0-1-1zM5 12a1 1 0 0 0-1-1H2a1 1 0 0 0 0 2h2a1 1 0 0 0 1-1zM22 11h-2a1 1 0 0 0 0 2h2a1 1 0 0 0 0-2zM5.636 7.05A1 1 0 0 0 7.05 5.636L5.636 4.222a1 1 0 0 0-1.414 1.414zM18.364 16.95a1 1 0 0 0-1.414 1.414l1.414 1.414a1 1 0 0 0 1.414-1.414zM17.657 7.343a1 1 0 0 0 .707-.293l1.414-1.414a1 1 0 0 0-1.414-1.414L16.95 5.636a1 1 0 0 0 .707 1.707zM5.636 16.95l-1.414 1.414a1 1 0 1 0 1.414 1.414l1.414-1.414a1 1 0 0 0-1.414-1.414z" fill="#323643" opacity="1" data-original="#000000" class=""></path></g></svg>